<svg width="249pt" height="98pt" viewBox="0.00 0.00 249.43 98.00" xmlns="http://www.w3.org/2000/svg" xmlns:xlink="http://www.w3.org/1999/xlink">
<g id="graph0" class="graph" transform="scale(1 1) rotate(0) translate(4 94)">
<polygon fill="white" stroke="none" points="-4,4 -4,-94 245.43,-94 245.43,4 -4,4"/>
<!-- 20250410080005432223318249055500 -->
<g id="node1" class="node">
<title>20250410080005432223318249055500</title>
<g id="a_node1"><a xlink:title="Step: Step 4">
<polygon fill="#4caf50" stroke="black" points="241.43,-90 184.95,-90 184.95,-54 241.43,-54 241.43,-90"/>
<text text-anchor="middle" x="213.19" y="-67.8" font-family="Arial" font-size="14.00" fill="white">Step 4</text>
</a>
</g>
</g>
<!-- 20250410080005432966816824063219 -->
<g id="node2" class="node">
<title>20250410080005432966816824063219</title>
<g id="a_node2"><a xlink:title="Step: Step 5">
<polygon fill="#4caf50" stroke="black" points="241.43,-36 184.95,-36 184.95,0 241.43,0 241.43,-36"/>
<text text-anchor="middle" x="213.19" y="-13.8" font-family="Arial" font-size="14.00" fill="white">Step 5</text>
</a>
</g>
</g>
<!-- 20250410080005430409315090464144 -->
<g id="node3" class="node">
<title>20250410080005430409315090464144</title>
<g id="a_node3"><a xlink:title="Step: Step 1">
<polygon fill="#4caf50" stroke="black" points="56.48,-63 0,-63 0,-27 56.48,-27 56.48,-63"/>
<text text-anchor="middle" x="28.24" y="-40.8" font-family="Arial" font-size="14.00" fill="white">Step 1</text>
</a>
</g>
</g>
<!-- 20250410080005431034715709639784 -->
<g id="node4" class="node">
<title>20250410080005431034715709639784</title>
<g id="a_node4"><a xlink:title="Step: Step 2">
<polygon fill="#4caf50" stroke="black" points="148.95,-90 92.48,-90 92.48,-54 148.95,-54 148.95,-90"/>
<text text-anchor="middle" x="120.71" y="-67.8" font-family="Arial" font-size="14.00" fill="white">Step 2</text>
</a>
</g>
</g>
<!-- 20250410080005430409315090464144&#45;&gt;20250410080005431034715709639784 -->
<g id="edge1" class="edge">
<title>20250410080005430409315090464144-&gt;20250410080005431034715709639784</title>
<g id="a_edge1"><a xlink:title="From Step 1 to Step 2">
<path fill="none" stroke="#4caf50" d="M56.88,-53.25C64.59,-55.55 73.12,-58.1 81.34,-60.55"/>
<polygon fill="#4caf50" stroke="#4caf50" points="80.21,-63.86 90.8,-63.37 82.21,-57.16 80.21,-63.86"/>
</a>
</g>
</g>
<!-- 20250410080005431613516734474752 -->
<g id="node5" class="node">
<title>20250410080005431613516734474752</title>
<g id="a_node5"><a xlink:title="Step: Step 3">
<polygon fill="#4caf50" stroke="black" points="148.95,-36 92.48,-36 92.48,0 148.95,0 148.95,-36"/>
<text text-anchor="middle" x="120.71" y="-13.8" font-family="Arial" font-size="14.00" fill="white">Step 3</text>
</a>
</g>
</g>
<!-- 20250410080005430409315090464144&#45;&gt;20250410080005431613516734474752 -->
<g id="edge2" class="edge">
<title>20250410080005430409315090464144-&gt;20250410080005431613516734474752</title>
<g id="a_edge2"><a xlink:title="From Step 1 to Step 3">
<path fill="none" stroke="#4caf50" d="M56.88,-36.75C64.59,-34.45 73.12,-31.9 81.34,-29.45"/>
<polygon fill="#4caf50" stroke="#4caf50" points="82.21,-32.84 90.8,-26.63 80.21,-26.14 82.21,-32.84"/>
</a>
</g>
</g>
<!-- 20250410080005431034715709639784&#45;&gt;20250410080005432223318249055500 -->
<g id="edge3" class="edge">
<title>20250410080005431034715709639784-&gt;20250410080005432223318249055500</title>
<g id="a_edge3"><a xlink:title="From Step 2 to Step 4">
<path fill="none" stroke="#4caf50" d="M149.35,-72C156.89,-72 165.21,-72 173.25,-72"/>
<polygon fill="#4caf50" stroke="#4caf50" points="173.21,-75.5 183.21,-72 173.21,-68.5 173.21,-75.5"/>
</a>
</g>
</g>
<!-- 20250410080005431034715709639784&#45;&gt;20250410080005432966816824063219 -->
<g id="edge5" class="edge">
<title>20250410080005431034715709639784-&gt;20250410080005432966816824063219</title>
<g id="a_edge5"><a xlink:title="From Step 2 to Step 5">
<path fill="none" stroke="#4caf50" d="M149.35,-55.5C157.42,-50.69 166.37,-45.35 174.93,-40.24"/>
<polygon fill="#4caf50" stroke="#4caf50" points="176.63,-43.3 183.42,-35.17 173.04,-37.29 176.63,-43.3"/>
</a>
</g>
</g>
<!-- 20250410080005431613516734474752&#45;&gt;20250410080005432223318249055500 -->
<g id="edge4" class="edge">
<title>20250410080005431613516734474752-&gt;20250410080005432223318249055500</title>
<g id="a_edge4"><a xlink:title="From Step 3 to Step 4">
<path fill="none" stroke="#4caf50" d="M149.35,-34.5C157.42,-39.31 166.37,-44.65 174.93,-49.76"/>
<polygon fill="#4caf50" stroke="#4caf50" points="173.04,-52.71 183.42,-54.83 176.63,-46.7 173.04,-52.71"/>
</a>
</g>
</g>
<!-- 20250410080005431613516734474752&#45;&gt;20250410080005432966816824063219 -->
<g id="edge6" class="edge">
<title>20250410080005431613516734474752-&gt;20250410080005432966816824063219</title>
<g id="a_edge6"><a xlink:title="From Step 3 to Step 5">
<path fill="none" stroke="#4caf50" d="M149.35,-18C156.89,-18 165.21,-18 173.25,-18"/>
<polygon fill="#4caf50" stroke="#4caf50" points="173.21,-21.5 183.21,-18 173.21,-14.5 173.21,-21.5"/>
</a>
</g>
</g>
</g>
</svg>