<svg width="249pt" height="44pt" viewBox="0.00 0.00 249.43 44.00" xmlns="http://www.w3.org/2000/svg" xmlns:xlink="http://www.w3.org/1999/xlink">
<g id="graph0" class="graph" transform="scale(1 1) rotate(0) translate(4 40)">
<polygon fill="white" stroke="none" points="-4,4 -4,-40 245.43,-40 245.43,4 -4,4"/>
<!-- 20250410075105666590015315047479 -->
<g id="node1" class="node">
<title>20250410075105666590015315047479</title>
<g id="a_node1"><a xlink:title="Step: Step 1">
<polygon fill="#4caf50" stroke="black" points="56.48,-36 0,-36 0,0 56.48,0 56.48,-36"/>
<text text-anchor="middle" x="28.24" y="-13.8" font-family="Arial" font-size="14.00" fill="white">Step 1</text>
</a>
</g>
</g>
<!-- 20250410075105667308216838749128 -->
<g id="node2" class="node">
<title>20250410075105667308216838749128</title>
<g id="a_node2"><a xlink:title="Step: Step 2">
<polygon fill="#2196f3" stroke="black" points="148.95,-36 92.48,-36 92.48,0 148.95,0 148.95,-36"/>
<text text-anchor="middle" x="120.71" y="-13.8" font-family="Arial" font-size="14.00" fill="white">Step 2</text>
</a>
</g>
</g>
<!-- 20250410075105666590015315047479&#45;&gt;20250410075105667308216838749128 -->
<g id="edge1" class="edge">
<title>20250410075105666590015315047479-&gt;20250410075105667308216838749128</title>
<g id="a_edge1"><a xlink:title="From Step 1 to Step 2">
<path fill="none" stroke="#4caf50" d="M56.88,-18C64.42,-18 72.73,-18 80.78,-18"/>
<polygon fill="#4caf50" stroke="#4caf50" points="80.73,-21.5 90.73,-18 80.73,-14.5 80.73,-21.5"/>
</a>
</g>
</g>
<!-- 20250410075105667846015182161606 -->
<g id="node3" class="node">
<title>20250410075105667846015182161606</title>
<g id="a_node3"><a xlink:title="Step: Step 3">
<polygon fill="none" stroke="black" points="241.43,-36 184.95,-36 184.95,0 241.43,0 241.43,-36"/>
<text text-anchor="middle" x="213.19" y="-13.8" font-family="Arial" font-size="14.00">Step 3</text>
</a>
</g>
</g>
<!-- 20250410075105667308216838749128&#45;&gt;20250410075105667846015182161606 -->
<g id="edge2" class="edge">
<title>20250410075105667308216838749128-&gt;20250410075105667846015182161606</title>
<g id="a_edge2"><a xlink:title="From Step 2 to Step 3">
<path fill="none" stroke="#4caf50" d="M149.35,-18C156.89,-18 165.21,-18 173.25,-18"/>
<polygon fill="#4caf50" stroke="#4caf50" points="173.21,-21.5 183.21,-18 173.21,-14.5 173.21,-21.5"/>
</a>
</g>
</g>
</g>
</svg>